<svg width="1024" height="1024" viewBox="80 80 352 352" fill="none" xmlns="http://www.w3.org/2000/svg">
  <defs>
    <linearGradient id="bg" x1="256" y1="24" x2="256" y2="488" gradientUnits="userSpaceOnUse">
      <stop stop-color="#061228"/>
      <stop offset="1" stop-color="#020814"/>
    </linearGradient>
    <linearGradient id="ring" x1="112" y1="132" x2="388" y2="380" gradientUnits="userSpaceOnUse">
      <stop stop-color="#D6FAFF"/>
      <stop offset="0.4" stop-color="#78D3FF"/>
      <stop offset="1" stop-color="#3F63E6"/>
    </linearGradient>
    <filter id="glow" x="-50%" y="-50%" width="200%" height="200%">
      <feGaussianBlur stdDeviation="4.5" result="b"/>
      <feMerge>
        <feMergeNode in="b"/>
        <feMergeNode in="SourceGraphic"/>
      </feMerge>
    </filter>
  </defs>

  <rect x="80" y="80" width="352" height="352" rx="40" fill="url(#bg)"/>

  <circle cx="256" cy="256" r="12" fill="#EDFDFE" filter="url(#glow)"/>
  <circle cx="256" cy="256" r="38" stroke="#A5E5FF" stroke-opacity="0.55" stroke-width="2"/>

  <circle cx="256" cy="256" r="88" stroke="url(#ring)" stroke-width="10" stroke-dasharray="148 20 42 20"/>
  <circle cx="256" cy="256" r="130" stroke="url(#ring)" stroke-opacity="0.82" stroke-width="8" stroke-dasharray="190 24 58 22"/>
  <circle cx="256" cy="256" r="170" stroke="#5ACBFF" stroke-opacity="0.22" stroke-width="2.5" stroke-dasharray="10 14"/>

  <g fill="#E2FBFF" filter="url(#glow)">
    <circle cx="238" cy="168" r="4.5"/>
    <circle cx="318" cy="212" r="4"/>
    <circle cx="186" cy="292" r="4"/>
    <circle cx="284" cy="336" r="4.5"/>
    <circle cx="286" cy="118" r="4.5"/>
    <circle cx="148" cy="184" r="4"/>
    <circle cx="386" cy="236" r="4.5"/>
    <circle cx="330" cy="366" r="4"/>
    <circle cx="222" cy="392" r="4.5"/>
    <circle cx="120" cy="274" r="4.5"/>
    <circle cx="174" cy="354" r="4"/>
    <circle cx="404" cy="170" r="3.5"/>
    <circle cx="382" cy="342" r="3.5"/>
    <circle cx="104" cy="218" r="3.5"/>
  </g>
</svg>
